<?xml version="1.0" encoding="utf-8"?>
<!-- Generator: Adobe Illustrator 26.0.1, SVG Export Plug-In . SVG Version: 6.00 Build 0)  -->
<svg version="1.1" id="Layer_1" xmlns="http://www.w3.org/2000/svg" xmlns:xlink="http://www.w3.org/1999/xlink" x="0px" y="0px"
	 viewBox="0 0 130.53 58.38" style="enable-background:new 0 0 130.53 58.38;" xml:space="preserve">
<style type="text/css">
	.st0{fill:#12110C;}
	.st1{fill:#0062AE;}
	.st2{fill:#EBEBEB;}
</style>
<g id="Drammen_kommune_VL_sort_00000128445328396657574000000016305224635427357322_">
	<g>
		<g>
			<path class="st0" d="M46.5,26.69c0.66,0,1.26-0.15,1.79-0.45c0.53-0.3,0.95-0.73,1.25-1.26c0.3-0.54,0.46-1.14,0.46-1.81
				c0-0.72-0.15-1.34-0.45-1.89c-0.3-0.54-0.71-0.96-1.24-1.26c-0.53-0.3-1.13-0.45-1.82-0.45h-1.81v7.13H46.5z M42.25,17.43h4.13
				c1.9,0,3.39,0.49,4.47,1.47c1.08,0.98,1.62,2.39,1.62,4.23c0,1.14-0.26,2.14-0.79,3c-0.53,0.86-1.25,1.53-2.18,1.99
				c-0.93,0.47-1.97,0.7-3.12,0.7h-4.13V17.43z"/>
			<path class="st0" d="M58.37,22.23c0.47,0,0.85-0.13,1.15-0.38c0.3-0.25,0.45-0.59,0.45-1c0-0.41-0.14-0.73-0.41-0.95
				c-0.27-0.22-0.67-0.33-1.19-0.33h-2.18v2.67H58.37z M53.74,17.43h4.49c1.4,0,2.46,0.29,3.17,0.86s1.07,1.43,1.07,2.56
				c0,0.78-0.23,1.46-0.69,2.03c-0.46,0.57-1.07,0.95-1.83,1.13c0.5,0.64,1.03,1.43,1.6,2.37c0.56,0.94,0.99,1.76,1.29,2.45h-2.93
				c-0.42-0.94-0.83-1.77-1.22-2.48c-0.39-0.7-0.81-1.36-1.25-1.97h-1.25v4.44h-2.44V17.43z"/>
			<path class="st0" d="M70.46,23.99c-0.55-1.91-1.03-3.41-1.42-4.49c-0.52,1.44-1.02,2.94-1.5,4.49H70.46z M63.79,28.83
				c0.27-1.46,0.77-3.29,1.51-5.47c0.73-2.18,1.5-4.16,2.3-5.93h2.99c0.75,1.72,1.48,3.62,2.2,5.71c0.72,2.1,1.29,3.99,1.71,5.68
				h-2.69c-0.24-0.93-0.48-1.83-0.73-2.69h-4.12c-0.29,1.14-0.49,2.03-0.59,2.69H63.79z"/>
			<path class="st0" d="M79.1,19.97c-0.35,3.28-0.57,6.23-0.67,8.85h-2.7c0.12-1.88,0.32-3.95,0.6-6.23c0.28-2.28,0.53-4,0.76-5.16
				h3.57l2.15,7.72l2.08-7.72h3.56c0.24,1.33,0.49,3.08,0.76,5.25c0.26,2.16,0.49,4.21,0.66,6.14h-2.74
				c-0.12-1.75-0.24-3.3-0.36-4.65c-0.12-1.35-0.28-2.74-0.47-4.17l-2.17,7.78H81.4L79.1,19.97z"/>
			<path class="st0" d="M94.73,19.97c-0.35,3.28-0.57,6.23-0.67,8.85h-2.7c0.12-1.88,0.32-3.95,0.6-6.23c0.28-2.28,0.53-4,0.76-5.16
				h3.56l2.15,7.72l2.08-7.72h3.56c0.24,1.33,0.49,3.08,0.76,5.25c0.26,2.16,0.49,4.21,0.66,6.14h-2.74
				c-0.12-1.75-0.24-3.3-0.36-4.65c-0.12-1.35-0.28-2.74-0.47-4.17l-2.17,7.78h-2.74L94.73,19.97z"/>
		</g>
		<polygon class="st0" points="107.13,17.43 114.59,17.43 114.59,19.56 109.58,19.56 109.58,21.97 113.97,21.97 113.97,24.12 
			109.58,24.12 109.58,26.69 114.59,26.69 114.59,28.83 107.13,28.83 		"/>
		<g>
			<path class="st0" d="M123.38,28.83c-1.53-2.77-3.24-5.34-5.13-7.73v7.73h-2.21v-11.4h2.51c1.18,1.46,2.18,2.75,2.98,3.9
				s1.49,2.23,2.07,3.25v-7.15h2.21v11.4H123.38z"/>
			<path class="st0" d="M48.76,43.82c-0.47-0.91-1.07-1.84-1.82-2.78c-0.75-0.94-1.5-1.72-2.25-2.35v5.13h-2.44v-11.4h2.44v4.74
				c0.74-0.59,1.47-1.3,2.18-2.15c0.72-0.85,1.32-1.71,1.81-2.59h2.9c-1.32,2.12-2.84,3.92-4.54,5.42c0.92,0.73,1.84,1.66,2.77,2.8
				c0.92,1.14,1.62,2.2,2.08,3.17H48.76z"/>
			<path class="st0" d="M55.05,40.81c0.58,0.65,1.38,0.98,2.38,0.98s1.8-0.33,2.38-0.98c0.58-0.66,0.86-1.55,0.86-2.68
				s-0.29-2.02-0.86-2.68c-0.58-0.66-1.37-0.98-2.38-0.98s-1.8,0.33-2.38,0.98c-0.58,0.65-0.87,1.55-0.87,2.69
				C54.18,39.27,54.47,40.16,55.05,40.81 M52.4,35.1c0.48-0.89,1.16-1.58,2.03-2.08c0.87-0.5,1.87-0.75,3-0.75s2.13,0.25,3,0.75
				c0.87,0.5,1.55,1.19,2.03,2.08c0.48,0.89,0.72,1.9,0.72,3.03s-0.24,2.14-0.72,3.03c-0.48,0.89-1.16,1.58-2.03,2.08
				c-0.87,0.5-1.87,0.75-3,0.75s-2.13-0.25-3-0.75c-0.87-0.5-1.55-1.19-2.03-2.08c-0.48-0.89-0.73-1.9-0.73-3.03
				S51.92,35.99,52.4,35.1"/>
			<path class="st0" d="M67.79,34.97c-0.35,3.28-0.57,6.23-0.67,8.85h-2.7c0.12-1.88,0.32-3.95,0.59-6.23
				c0.28-2.28,0.53-4,0.76-5.16h3.56l2.15,7.72l2.08-7.72h3.56c0.24,1.34,0.49,3.09,0.76,5.25c0.27,2.17,0.49,4.21,0.66,6.15h-2.74
				c-0.12-1.75-0.24-3.3-0.36-4.65c-0.12-1.35-0.28-2.74-0.47-4.17l-2.17,7.78h-2.74L67.79,34.97z"/>
			<path class="st0" d="M83.42,34.97c-0.35,3.28-0.57,6.23-0.67,8.85h-2.7c0.12-1.88,0.32-3.95,0.59-6.23
				c0.28-2.28,0.53-4,0.76-5.16h3.57l2.15,7.72l2.08-7.72h3.56c0.24,1.34,0.49,3.09,0.76,5.25c0.27,2.17,0.49,4.21,0.66,6.15h-2.74
				c-0.12-1.75-0.24-3.3-0.36-4.65c-0.12-1.35-0.28-2.74-0.47-4.17l-2.17,7.78h-2.74L83.42,34.97z"/>
			<path class="st0" d="M105.2,32.43v6.94c0,0.93-0.19,1.75-0.56,2.44c-0.38,0.69-0.92,1.23-1.62,1.61
				c-0.71,0.38-1.54,0.57-2.51,0.57s-1.8-0.19-2.51-0.57c-0.7-0.38-1.24-0.92-1.62-1.61c-0.37-0.69-0.56-1.51-0.56-2.44v-6.94h2.44
				v6.62c0,0.88,0.19,1.56,0.59,2.03c0.39,0.47,0.96,0.71,1.71,0.71c0.75,0,1.32-0.24,1.71-0.71c0.39-0.47,0.59-1.15,0.59-2.03
				v-6.62H105.2z"/>
			<path class="st0" d="M114.3,43.82c-1.53-2.77-3.24-5.35-5.13-7.73v7.73h-2.21v-11.4h2.51c1.18,1.46,2.18,2.75,2.98,3.9
				c0.8,1.14,1.49,2.23,2.07,3.25v-7.15h2.21v11.4H114.3z"/>
		</g>
		<polygon class="st0" points="118.45,32.43 118.45,43.82 125.9,43.82 125.9,41.69 120.89,41.69 120.89,39.12 125.28,39.12 
			125.28,36.97 120.89,36.97 120.89,34.56 125.9,34.56 125.9,32.43 		"/>
		<g>
			<path class="st1" d="M19.5,51.65c2.84,0,5.44-0.63,7.72-1.87c1.75-0.96,3.28-2.24,4.56-3.84c2.28-2.85,3.64-6.62,3.64-10.08
				h-0.94c0,0.31-0.01,0.62-0.03,0.93l-0.62,0.01c0.02-0.31,0.04-0.63,0.04-0.94h-0.75c0,2.95-1.17,6.18-3.13,8.64
				c-1.77,2.21-5.03,4.85-10.49,4.85c-5.46,0-8.72-2.64-10.49-4.85c-1.96-2.45-3.14-5.68-3.14-8.64H5.13c0,0.31,0.01,0.62,0.03,0.94
				l-0.62-0.01c-0.02-0.31-0.03-0.62-0.03-0.93H3.57c0,3.46,1.36,7.23,3.64,10.08c1.27,1.59,2.81,2.88,4.55,3.84
				C14.05,51.01,16.66,51.65,19.5,51.65"/>
			<path class="st1" d="M29.02,17.69h2.96v18.2c0,3.04-1.49,7.34-4.98,9.99c-4.36,3.38-11.38,3.1-15.19-0.1
				c-3.4-2.66-4.85-6.89-4.85-9.88v-18.2h2.86l-0.26-0.92l-0.02-0.09l-0.01-0.02l0.11-0.06c0.01-0.01,0.02-0.01,0.04-0.02
				c0.07-0.04,0.16-0.08,0.26-0.13l-0.21-0.85l-0.03,0.02c-0.11,0.05-0.2,0.1-0.25,0.12l-0.09,0.04l-0.03-0.09l-0.28-1.03
				l-0.02-0.06l0.06-0.03c0.06-0.03,0.19-0.1,0.32-0.16L7.64,7.81L7.62,7.74l0.07-0.03c0.16-0.07,0.32-0.14,0.48-0.2
				C8.31,7.45,8.45,7.4,8.59,7.34c0.02-0.01,0.04-0.01,0.06-0.03l0.09-0.03l0.02,0.09l0.22,0.9c0.13-0.05,0.26-0.1,0.39-0.15
				c0.09-0.04,0.18-0.07,0.28-0.1C9.7,8.01,9.74,8,9.79,7.98l-0.2-0.92L9.57,6.99l0.07-0.02c0.16-0.06,0.33-0.11,0.5-0.17
				c0.17-0.06,0.33-0.12,0.51-0.16l0.08-0.02l0.01,0.08l0.18,0.9c0.05-0.01,0.09-0.02,0.14-0.04c0.09-0.03,0.18-0.05,0.27-0.08
				c0.07-0.03,0.15-0.05,0.23-0.07c0.06-0.02,0.12-0.04,0.19-0.05l-0.16-0.92l-0.02-0.07l0.07-0.02c0.17-0.05,0.34-0.09,0.51-0.14
				c0.09-0.02,0.17-0.04,0.25-0.06c0.08-0.02,0.17-0.04,0.26-0.06l0.08-0.02l0.02,0.09l0.43,2.92c1.16-0.27,2.41-0.5,3.73-0.64
				l-0.16-2.88l-0.01-0.08l0.08-0.01c0.18-0.01,0.87-0.06,1.05-0.07l0.08-0.01l0.01,0.08l0.04,0.92c0.05,0,0.12-0.01,0.2-0.01
				c0.22-0.01,0.5-0.02,0.66-0.02l-0.01-0.93V5.36h0.34c0.08,0,0.17-0.01,0.26-0.01c0.08,0,0.17,0.01,0.26,0.01h0.34v0.08
				l-0.01,0.93c0.16,0,0.43,0.01,0.65,0.02c0.08,0,0.16,0.01,0.22,0.01l0.03-0.92l0.01-0.08l0.08,0.01c0.18,0,0.87,0.06,1.05,0.07
				l0.08,0.01l-0.01,0.08L22,8.44c1.3,0.14,2.54,0.35,3.68,0.62l0.43-2.93l0.02-0.09l0.08,0.02c0.09,0.02,0.17,0.04,0.26,0.06
				s0.17,0.04,0.26,0.06c0.17,0.04,0.34,0.08,0.51,0.13l0.07,0.02l-0.02,0.07l-0.16,0.92c0.06,0.02,0.13,0.04,0.19,0.05
				c0.08,0.02,0.16,0.04,0.23,0.07c0.09,0.03,0.18,0.05,0.27,0.08c0.04,0.02,0.09,0.03,0.13,0.04l0.18-0.9l0.02-0.08l0.08,0.02
				c0.17,0.05,0.34,0.1,0.51,0.16c0.16,0.05,0.33,0.11,0.5,0.17l0.07,0.02l-0.02,0.07l-0.2,0.92c0.05,0.02,0.09,0.03,0.14,0.05
				c0.09,0.03,0.18,0.06,0.28,0.1c0.13,0.05,0.26,0.1,0.39,0.15l0.22-0.9l0.02-0.09l0.09,0.03c0.02,0.01,0.04,0.02,0.06,0.03
				c0.14,0.05,0.28,0.1,0.42,0.17c0.16,0.06,0.31,0.13,0.48,0.2l0.07,0.03l-0.02,0.07l-1.76,6.58c0.14,0.06,0.27,0.13,0.4,0.19
				l0.06,0.03l-0.02,0.06l-0.31,1.13l-0.09-0.04c-0.05-0.02-0.14-0.07-0.25-0.12c-0.03-0.02-0.06-0.03-0.09-0.05l-0.23,0.91
				c0.09,0.05,0.18,0.09,0.24,0.12l0.11,0.05l-0.03,0.12L29.02,17.69L29.02,17.69z M19.04,12.1c0.25-0.01,0.5-0.01,0.74,0
				c0.01-0.53,0.02-1.63,0.03-2.47c0.01-0.64,0.02-1.15,0.02-1.24c0-0.25-0.15-0.42-0.41-0.42c-0.27,0-0.41,0.18-0.41,0.42
				c0,0.08,0.01,0.48,0.01,0.99c0,0.2,0.01,0.42,0.01,0.65C19.03,10.72,19.04,11.65,19.04,12.1 M27.01,13.31
				c0.17,0.06,0.5,0.17,0.69,0.23c0.03-0.15,0.07-0.33,0.12-0.55c0.15-0.65,0.34-1.51,0.47-2.09c0.04-0.18,0.07-0.33,0.1-0.47
				L28.49,10c0.01-0.04,0.01-0.08,0.01-0.12c0-0.18-0.1-0.34-0.32-0.38c-0.04-0.01-0.08-0.01-0.11-0.01c-0.2,0-0.34,0.13-0.38,0.34
				c-0.01,0.05-0.03,0.2-0.08,0.41c-0.01,0.07-0.03,0.16-0.05,0.24c-0.04,0.19-0.08,0.42-0.13,0.68
				C27.3,11.9,27.13,12.81,27.01,13.31 M11.88,13.38c-0.06-0.33-0.17-0.88-0.28-1.4c-0.1-0.54-0.21-1.09-0.29-1.47
				c-0.02-0.08-0.03-0.17-0.05-0.24c-0.04-0.22-0.07-0.37-0.08-0.41c-0.04-0.2-0.18-0.34-0.38-0.34c-0.03,0-0.07,0-0.11,0.01
				c-0.22,0.04-0.32,0.2-0.32,0.38c0,0.04,0,0.08,0.01,0.11c0.01,0.06,0.06,0.27,0.12,0.56c0.02,0.1,0.05,0.22,0.07,0.34
				c0.1,0.5,0.27,1.2,0.4,1.81c0.07,0.31,0.16,0.66,0.2,0.88L11.88,13.38z M28.65,17.69c-0.19-0.1-0.42-0.22-0.51-0.26
				c-0.13-0.06-0.62-0.29-0.74-0.35c-0.12-0.05-0.63-0.27-0.76-0.31c-0.1-0.04-0.42-0.16-0.63-0.23c-0.06-0.03-0.11-0.04-0.14-0.05
				c-0.11-0.04-0.57-0.18-0.74-0.23h-0.02l-0.02-0.01c-0.13-0.04-1.52-0.4-2.1-0.5c-0.51-0.09-1.02-0.16-1.52-0.22
				c-0.13-0.01-0.68-0.06-0.82-0.07c-0.08-0.01-0.16-0.01-0.24-0.01c-0.04,0-0.08-0.01-0.12-0.01h-0.05
				c-0.14-0.01-0.68-0.02-0.83-0.02c-0.14,0-0.68,0.01-0.82,0.02h-0.06c-0.03,0-0.07,0.01-0.11,0.01c-0.07,0-0.16,0-0.24,0.01
				c-0.14,0.01-0.68,0.06-0.82,0.07c-0.51,0.06-1.02,0.13-1.53,0.22c-0.57,0.1-1.97,0.47-2.1,0.5c-0.13,0.04-0.66,0.2-0.78,0.24
				c-0.14,0.05-0.65,0.24-0.77,0.28c-0.13,0.05-0.64,0.26-0.76,0.31l-0.75,0.35c-0.08,0.04-0.32,0.16-0.51,0.26H28.65z"/>
			<path class="st2" d="M19.48,13.18c-0.15,0-0.73,0.02-0.88,0.02c-0.14,0-0.27,0.01-0.41,0.01h-0.03
				c-0.15,0.01-0.73,0.06-0.87,0.07c-0.29,0.03-1.14,0.14-1.28,0.16c-0.44,0.07-0.88,0.16-1.32,0.25c-0.28,0.06-1.13,0.28-1.27,0.32
				c-0.14,0.04-0.7,0.21-0.84,0.26c-0.13,0.04-0.68,0.24-0.82,0.28c-0.14,0.05-0.67,0.27-0.81,0.32c-0.14,0.06-0.67,0.29-0.8,0.34
				c-0.08,0.04-0.33,0.17-0.54,0.26c-0.07,0.04-0.13,0.07-0.18,0.09l-0.25-0.91c0.08-0.04,0.17-0.08,0.25-0.12
				c0.03-0.02,0.06-0.03,0.1-0.05c0.13-0.06,0.67-0.31,0.81-0.36c0.14-0.06,0.69-0.29,0.82-0.34c0.14-0.05,0.84-0.3,0.85-0.3
				c0.14-0.05,0.7-0.23,0.84-0.27c0.14-0.04,0.71-0.2,0.86-0.24c1.14-0.29,2.31-0.5,3.52-0.62c0.15-0.01,0.75-0.06,0.89-0.07
				c0.15-0.01,0.28-0.02,0.43-0.02h0.03c0.15-0.01,0.3-0.01,0.44-0.01h0.22c0.07,0,0.15,0,0.22,0c0.07,0,0.14,0,0.22,0h0.22
				c0.15,0,0.3,0.01,0.45,0.01c0.15,0,0.3,0.02,0.45,0.02c0.15,0.01,0.75,0.06,0.89,0.07c1.21,0.11,2.38,0.32,3.52,0.62
				c0.14,0.04,0.72,0.2,0.86,0.24c0.14,0.04,0.7,0.22,0.84,0.27c0.08,0.03,0.7,0.25,0.84,0.3c0.12,0.05,0.58,0.24,0.77,0.31
				c0.02,0.01,0.04,0.01,0.05,0.02c0.14,0.05,0.68,0.3,0.81,0.36c0.12,0.06,0.24,0.12,0.35,0.17l-0.26,0.91
				c-0.05-0.02-0.11-0.05-0.18-0.08c-0.2-0.1-0.45-0.22-0.54-0.27c-0.13-0.06-0.66-0.29-0.8-0.34c-0.13-0.06-0.67-0.27-0.81-0.32
				c-0.14-0.05-0.69-0.24-0.82-0.28c-0.14-0.05-0.7-0.21-0.83-0.26c-0.15-0.04-0.99-0.25-1.27-0.32c-0.44-0.09-0.88-0.18-1.32-0.25
				c-0.13-0.02-0.98-0.13-1.27-0.16c-0.15-0.01-0.72-0.06-0.87-0.07c-0.15-0.01-0.3-0.01-0.44-0.01
				C20.2,13.19,19.62,13.18,19.48,13.18"/>
			<path class="st2" d="M19.41,15.3c-0.14,0-0.68,0.01-0.82,0.02c-0.06,0.01-0.11,0.01-0.17,0.01c-0.08,0-0.17,0.01-0.25,0.01
				c-0.14,0.01-0.68,0.05-0.82,0.07c-0.52,0.05-1.03,0.12-1.53,0.22c-0.58,0.1-1.98,0.47-2.12,0.51c-0.14,0.04-0.66,0.2-0.79,0.25
				c-0.14,0.05-0.65,0.24-0.78,0.28c-0.13,0.05-0.64,0.26-0.77,0.32c-0.13,0.05-0.62,0.29-0.75,0.34c-0.11,0.05-0.49,0.25-0.67,0.34
				L9.7,16.74c0.17-0.08,0.59-0.29,0.71-0.35c0.13-0.06,0.64-0.29,0.77-0.34c0.13-0.06,0.66-0.27,0.78-0.31
				c0.14-0.05,0.67-0.25,0.8-0.29c0.14-0.05,1.08-0.33,1.22-0.36c0.27-0.07,0.54-0.14,0.82-0.2c0.37-0.08,0.74-0.16,1.11-0.22
				c0.13-0.02,0.27-0.04,0.4-0.06c0.05-0.01,0.1-0.02,0.15-0.02c0.28-0.04,0.56-0.08,0.84-0.1c0.14-0.02,1.13-0.09,1.27-0.09
				c0.15-0.01,0.7-0.01,0.84-0.01c0.13,0,0.7,0.01,0.84,0.01c0.14,0.01,1.13,0.08,1.27,0.09c0.28,0.03,0.56,0.06,0.84,0.1
				c0.05,0,0.1,0.01,0.15,0.02c0.14,0.02,0.27,0.04,0.4,0.06c0.38,0.06,0.75,0.14,1.12,0.22c0.28,0.06,0.55,0.12,0.82,0.2
				c0.13,0.04,1.08,0.32,1.22,0.36c0.13,0.05,0.66,0.24,0.79,0.29c0.14,0.05,0.66,0.26,0.78,0.31c0.14,0.05,0.65,0.28,0.77,0.34
				c0.12,0.06,0.54,0.27,0.72,0.35l-0.26,0.92c-0.18-0.1-0.56-0.29-0.67-0.34c-0.13-0.06-0.62-0.29-0.75-0.34
				c-0.12-0.06-0.63-0.27-0.76-0.32c-0.13-0.05-0.65-0.23-0.78-0.28c-0.12-0.04-0.57-0.18-0.74-0.24c-0.02,0-0.03-0.01-0.04-0.01
				c-0.14-0.04-1.54-0.4-2.12-0.51c-0.51-0.09-1.02-0.17-1.54-0.22c-0.13-0.01-0.68-0.06-0.82-0.07c-0.08-0.01-0.17-0.01-0.25-0.01
				c-0.05,0-0.11,0-0.16-0.01C20.1,15.31,19.55,15.3,19.41,15.3"/>
			<path class="st2" d="M14.71,36.15l-0.63-0.61L25.51,24.1c0.14-0.14,0.29-0.16,0.39-0.16v0.03c0,0.09-0.02,0.23-0.15,0.37
				L14.71,36.15z"/>
			<path class="st2" d="M19.88,21.23c0.04-0.04,0.08-0.08,0.11-0.12c0.05-0.07-0.03-0.12-0.08-0.06c0,0,0,0,0,0.01
				c-0.09,0.14-0.25,0.23-0.43,0.23c-0.18,0-0.34-0.09-0.43-0.23v-0.01c-0.05-0.07-0.13-0.01-0.07,0.07c0,0.01,0.01,0.01,0.01,0.01
				c0.02,0.03,0.04,0.06,0.07,0.08c-0.26,0.37-0.43,1.11-0.43,1.83c0,0.15,0,0.3,0.03,0.44c0.03,0.24,0.1,0.47,0.18,0.68
				c0.06,0.17,0.11,0.32,0.13,0.45c-0.08,0-0.22,0-0.34-0.01c-0.07,0-0.12,0-0.17,0h-0.04c-0.14-0.21-0.41-0.74-0.51-1.18
				c-0.08-0.38-0.11-0.82-0.14-1.23c-0.02-0.3-0.04-0.58-0.08-0.8c-0.04-0.22-0.19-0.51-0.4-0.51c0.21,0.2,0.01,0.57-0.31,0.56
				c-0.1,0-0.21-0.02-0.32-0.05c-0.15-0.04-0.27-0.17-0.36-0.34c-0.15-0.29-0.15-0.64,0.05-0.9c0.17-0.23,0.45-0.37,0.76-0.37
				c0.66,0,1.13,0.6,1.15,1.22c0.07-0.38,0.19-0.65,0.39-0.86c0.46-0.49,1.27-0.47,1.74-0.01c0.19,0.19,0.35,0.49,0.35,0.86
				l-0.01-0.01c0.11-0.55,0.38-0.9,0.68-1.07c0.38-0.22,0.87-0.2,1.17,0.12c0.12,0.13,0.2,0.3,0.22,0.49c0,0.02,0.01,0.05,0.01,0.07
				c0,0.27-0.11,0.53-0.28,0.68c-0.2,0.18-0.49,0.25-0.72,0.09c-0.15-0.1-0.2-0.31-0.09-0.48c-0.23-0.02-0.36,0.28-0.4,0.51
				c-0.04,0.22-0.06,0.5-0.08,0.8c-0.03,0.41-0.06,0.86-0.15,1.23c-0.1,0.46-0.35,0.94-0.49,1.18c-0.07,0-0.22,0-0.36-0.01
				c-0.07,0-0.14,0-0.18,0H20c0.02-0.12,0.06-0.26,0.11-0.41c0.06-0.21,0.14-0.45,0.17-0.7c0.02-0.14,0.02-0.29,0.02-0.43
				C20.29,22.34,20.12,21.6,19.88,21.23"/>
		</g>
		<polygon class="st2" points="16.25,18.72 16.25,19.61 19.38,19.61 22.52,19.61 22.52,18.72 		"/>
		<g>
			<path class="st2" d="M12.03,13.33c-0.13-0.66-0.41-2.09-0.56-2.85c-0.06-0.34-0.11-0.59-0.12-0.65
				c-0.05-0.26-0.24-0.46-0.52-0.46c-0.04,0-0.09,0.01-0.14,0.02c-0.29,0.06-0.44,0.28-0.44,0.52c0,0.05,0.01,0.1,0.02,0.15
				c0.02,0.08,0.09,0.43,0.19,0.9c0.17,0.8,0.48,2.14,0.61,2.71l-0.15,0.07l-0.31,0.14c-0.12,0.06-0.24,0.1-0.3,0.12
				c-0.07,0.03-0.26,0.11-0.44,0.2l-0.32,0.14L7.8,7.82C7.94,7.76,8.09,7.7,8.23,7.64s0.28-0.11,0.42-0.16L8.88,8.4l0.02,0.07
				l0.07-0.03c0.15-0.06,0.31-0.12,0.47-0.18c0.09-0.04,0.18-0.07,0.28-0.1c0.07-0.03,0.14-0.05,0.2-0.07l0.05-0.01L9.95,8.02
				l-0.2-0.94c0.15-0.05,0.29-0.1,0.44-0.15c0.15-0.05,0.29-0.1,0.43-0.14l0.18,0.93l0.01,0.07l0.07-0.02
				c0.07-0.02,0.15-0.04,0.22-0.07c0.09-0.03,0.18-0.05,0.27-0.08c0.07-0.02,0.15-0.04,0.22-0.06c0.09-0.03,0.18-0.05,0.26-0.07
				l0.06-0.02l-0.01-0.06l-0.16-0.94c0.15-0.04,0.3-0.08,0.45-0.12c0.08-0.02,0.17-0.04,0.25-0.06c0.06-0.01,0.13-0.03,0.19-0.05
				l1,6.62c-0.21,0.05-0.68,0.18-0.81,0.22C12.7,13.12,12.21,13.27,12.03,13.33"/>
			<path class="st2" d="M27.81,13.66c0.12-0.56,0.44-1.91,0.61-2.72c0.1-0.46,0.18-0.82,0.19-0.9c0.01-0.05,0.02-0.1,0.02-0.15
				c0-0.25-0.15-0.46-0.44-0.52c-0.05-0.01-0.09-0.01-0.14-0.01c-0.29,0-0.48,0.2-0.52,0.46c-0.01,0.06-0.06,0.31-0.12,0.65
				c-0.15,0.76-0.43,2.19-0.56,2.84c-0.23-0.08-0.47-0.16-0.72-0.22c-0.15-0.04-0.72-0.2-0.87-0.24c-0.01,0-0.01-0.01-0.02-0.01
				l1-6.62c0.06,0.01,0.13,0.03,0.19,0.05c0.08,0.02,0.17,0.04,0.25,0.06c0.16,0.04,0.3,0.07,0.45,0.11l-0.16,0.94l-0.01,0.06
				l0.06,0.02c0.08,0.02,0.17,0.05,0.26,0.07c0.08,0.02,0.15,0.04,0.23,0.06c0.09,0.03,0.18,0.05,0.27,0.08
				c0.07,0.03,0.15,0.05,0.22,0.07l0.07,0.02l0.01-0.07l0.18-0.93c0.15,0.04,0.29,0.09,0.43,0.14c0.15,0.05,0.3,0.09,0.44,0.15
				L28.93,8l-0.01,0.06l0.05,0.02c0.07,0.03,0.14,0.05,0.2,0.07c0.09,0.03,0.18,0.06,0.28,0.1c0.16,0.06,0.32,0.12,0.47,0.18
				l0.07,0.03L30,8.38l0.23-0.92c0.14,0.05,0.27,0.1,0.42,0.16c0.14,0.06,0.29,0.12,0.43,0.18l-1.73,6.51
				c-0.21-0.1-0.58-0.26-0.69-0.31c-0.01-0.01-0.03-0.01-0.05-0.02c-0.19-0.08-0.65-0.27-0.78-0.32
				C27.82,13.66,27.81,13.66,27.81,13.66"/>
			<path class="st2" d="M22.24,44.43c-0.19-0.15-0.43-0.24-0.7-0.24c-0.47,0-0.87,0.29-1.04,0.7c-0.1-0.51-0.56-0.9-1.1-0.9
				c-0.54,0-1,0.39-1.1,0.9c-0.17-0.41-0.57-0.7-1.04-0.7c-0.24,0-0.46,0.08-0.65,0.21v-1.32h5.62V44.43z"/>
		</g>
		<polygon class="st2" points="19.29,30.17 18.97,30.48 18.75,30.26 13.77,25.09 14.09,24.77 19.07,29.94 		"/>
		<g>
			<path class="st2" d="M17.49,42.38h0.1h3.72h0.1h0.1c0.52,0,0.73,0.09,0.73,0.29c0,0.2-0.21,0.29-0.73,0.29h-2.05h-2.05
				c-0.52,0-0.72-0.09-0.72-0.29c0-0.19,0.2-0.29,0.72-0.29H17.49z"/>
			<path class="st2" d="M19.92,12.12c0-0.87,0.05-3.5,0.05-3.71V8.39c0-0.3-0.2-0.56-0.55-0.56c-0.36,0-0.56,0.26-0.56,0.57
				c0,0.11,0.01,0.85,0.02,1.64c0.01,0.72,0.01,1.65,0.01,2.08c-0.26,0.01-0.51,0.02-0.76,0.04c-0.14,0.01-0.64,0.04-0.84,0.06
				l-0.38-6.6c0.21-0.01,0.71-0.05,0.92-0.06l0.04,0.94v0.06l0.06-0.01c0.05,0,0.16,0,0.28-0.01c0.27-0.01,0.62-0.02,0.74-0.02h0.06
				V6.47l-0.01-0.95c0.06,0,0.13,0,0.2-0.01h0.52c0.07,0.01,0.14,0.01,0.2,0.01l-0.01,0.95v0.06h0.06c0.12,0,0.45,0.01,0.73,0.02
				c0.13,0.01,0.24,0.01,0.3,0.01l0.06,0.01V6.5l0.03-0.94c0.22,0.01,0.71,0.05,0.93,0.06l-0.37,6.6c-0.21-0.02-0.69-0.05-0.82-0.06
				C20.53,12.14,20.23,12.13,19.92,12.12"/>
			<path class="st2" d="M21.32,42.28H17.6c-0.47,0-0.66-0.09-0.66-0.29c0-0.19,0.19-0.28,0.66-0.28h1.86h1.86
				c0.46,0,0.66,0.09,0.66,0.28C21.97,42.19,21.78,42.28,21.32,42.28"/>
		</g>
		<polygon class="st2" points="17.71,33.09 19.51,31.15 19.84,31.48 21.14,32.83 21.48,41.59 17.41,41.59 		"/>
		<g>
			<path class="st2" d="M13.22,9.2c1.15-0.28,2.4-0.51,3.71-0.64l0.21,3.67c-1.16,0.11-2.29,0.31-3.38,0.59L13.22,9.2z"/>
			<path class="st2" d="M19.58,31.08l0.31-0.33l0.36,0.36l3.26,3.39c-0.06,0.04-0.11,0.09-0.17,0.15c-0.06,0.06-0.11,0.11-0.16,0.17
				l-3.28-3.4L19.58,31.08z"/>
			<path class="st2" d="M22,8.57c1.29,0.12,2.53,0.36,3.67,0.62l-0.54,3.62c-1.09-0.27-2.2-0.47-3.34-0.58L22,8.57z"/>
		</g>
		<polygon class="st2" points="15.72,27.28 13.88,29.06 13.08,28.22 13.63,27.69 14.11,28.19 14.45,27.86 13.97,27.36 14.57,26.78 
			14.25,26.44 13.64,27.03 13.16,26.53 12.82,26.86 13.3,27.36 12.75,27.89 11.95,27.05 13.78,25.27 		"/>
		<g>
			<path class="st2" d="M20.63,24.73c0.47,0,0.61,0.11,0.61,0.3c0,0.14-0.08,0.23-0.31,0.27h-2.95c-0.23-0.04-0.32-0.13-0.32-0.27
				c0-0.19,0.15-0.3,0.61-0.3H20.63z"/>
		</g>
		<polygon class="st2" points="20.97,28.49 19.37,30.1 19.15,29.87 17.86,28.53 17.97,25.39 20.85,25.4 		"/>
		<g>
			<path class="st2" d="M20.67,14.26c-0.19-0.02-0.35-0.03-0.4-0.03c-0.14-0.01-0.71-0.02-0.85-0.02c-0.14,0-0.7,0.01-0.85,0.02
				c-0.05,0-0.18,0.01-0.34,0.02l-0.03-0.89h0.01c0.14-0.01,0.27-0.02,0.41-0.02c0.15-0.01,0.72-0.02,0.87-0.02
				c0.14,0,0.72,0.01,0.86,0.02c0.11,0.01,0.23,0.01,0.34,0.02L20.67,14.26z"/>
			<path class="st2" d="M28.03,16.04c-0.14-0.06-0.26-0.11-0.32-0.14c-0.13-0.05-0.65-0.27-0.79-0.31c-0.14-0.05-0.67-0.24-0.8-0.29
				c-0.04-0.02-0.16-0.05-0.3-0.09l0.15-0.91c0.16,0.05,0.3,0.09,0.36,0.11c0.14,0.04,0.69,0.23,0.82,0.28
				c0.14,0.05,0.68,0.26,0.81,0.32c0.05,0.02,0.17,0.07,0.3,0.13L28.03,16.04z"/>
			<path class="st2" d="M13.07,15.19c-0.18,0.05-0.32,0.1-0.37,0.12c-0.13,0.04-0.67,0.24-0.8,0.29c-0.12,0.05-0.66,0.26-0.79,0.31
				c-0.05,0.02-0.14,0.06-0.25,0.11l-0.22-0.85c0.16-0.07,0.3-0.13,0.37-0.16c0.13-0.06,0.67-0.27,0.8-0.32
				c0.14-0.05,0.68-0.24,0.82-0.28c0.05-0.02,0.17-0.06,0.3-0.09L13.07,15.19z"/>
			<path class="st2" d="M26.75,34.46c-0.06,0.04-0.12,0.08-0.17,0.14c-0.03,0.03-0.05,0.05-0.07,0.07
				c-0.28-0.21-0.61-0.33-0.87-0.33c-0.12,0-0.23,0.01-0.34,0.05c-0.16,0.05-0.3,0.13-0.4,0.23c-0.11,0.11-0.16,0.31-0.07,0.42
				c0-0.15,0.09-0.25,0.22-0.25c0.07,0,0.17,0.06,0.18,0.2c0,0.02,0,0.04,0,0.05c0,0.13-0.09,0.22-0.23,0.26
				c-0.04,0.02-0.09,0.02-0.14,0.02c-0.14,0-0.28-0.06-0.34-0.18c-0.06-0.1-0.08-0.21-0.08-0.3c0-0.32,0.28-0.62,0.7-0.74
				c0.14-0.05,0.29-0.07,0.45-0.07C25.95,34.02,26.41,34.19,26.75,34.46"/>
			<path class="st2" d="M23.47,38.52c0.06-0.04,0.11-0.08,0.17-0.14c0.03-0.03,0.05-0.05,0.07-0.07c0.28,0.21,0.61,0.33,0.86,0.33
				c0.13,0,0.24-0.02,0.34-0.05c0.16-0.05,0.3-0.13,0.4-0.22c0.11-0.11,0.16-0.31,0.07-0.42c0,0.15-0.09,0.25-0.22,0.25
				c-0.07,0-0.17-0.06-0.18-0.2c0-0.02,0-0.04,0-0.05c0-0.13,0.09-0.22,0.22-0.26c0.04-0.01,0.09-0.02,0.14-0.02
				c0.14,0,0.28,0.06,0.34,0.18c0.06,0.1,0.08,0.21,0.08,0.3c0,0.32-0.28,0.62-0.7,0.74c-0.14,0.05-0.29,0.07-0.45,0.07
				C24.27,38.95,23.81,38.79,23.47,38.52"/>
			<path class="st2" d="M20.39,45.33c-0.44,0.03-0.81,0.31-0.97,0.7c-0.1-0.49-0.53-0.88-1.04-0.9v-0.02c0-0.56,0.46-1.02,1.02-1.02
				c0.56,0,1.02,0.46,1.02,1.02C20.42,45.18,20.41,45.26,20.39,45.33"/>
			<path class="st2" d="M22.54,45.52c-0.44,0.03-0.82,0.31-0.97,0.7c-0.1-0.49-0.53-0.87-1.04-0.89v-0.02
				c0-0.56,0.46-1.02,1.02-1.02c0.56,0,1.02,0.46,1.02,1.02C22.56,45.38,22.55,45.45,22.54,45.52"/>
			<path class="st2" d="M24.66,45.71c-0.44,0.03-0.81,0.31-0.96,0.7c-0.1-0.49-0.53-0.88-1.04-0.9v-0.02c0-0.56,0.46-1.02,1.02-1.02
				c0.56,0,1.02,0.46,1.02,1.02C24.69,45.57,24.68,45.64,24.66,45.71"/>
			<path class="st2" d="M17.21,46.38v0.04v0.02v0.02c-0.51,0.03-0.94,0.4-1.04,0.89c-0.16-0.39-0.54-0.68-0.97-0.7
				c-0.01-0.03-0.02-0.07-0.02-0.1v-0.01c0-0.03,0-0.06,0-0.09c0-0.56,0.46-1.02,1.02-1.02c0.52,0,0.95,0.39,1.01,0.89
				C17.21,46.33,17.21,46.36,17.21,46.38"/>
			<path class="st2" d="M19.34,46.18v0.04v0.02v0.02c-0.52,0.03-0.94,0.41-1.04,0.9c-0.16-0.39-0.53-0.67-0.97-0.7
				c-0.01-0.04-0.02-0.07-0.02-0.11v-0.03c-0.01-0.03-0.01-0.05-0.01-0.08c0-0.56,0.46-1.02,1.02-1.02c0.52,0,0.95,0.39,1.01,0.89
				C19.34,46.13,19.34,46.15,19.34,46.18"/>
			<path class="st2" d="M25.82,46.53c-0.13-0.45-0.54-0.8-1.03-0.82v-0.02c0-0.56,0.46-1.02,1.02-1.02c0.56,0,1.02,0.46,1.02,1.02
				c0,0.07-0.01,0.13-0.02,0.19C26.5,46.11,26.17,46.33,25.82,46.53"/>
			<path class="st2" d="M20.06,48.15c-0.2,0.01-0.4,0.01-0.59,0.01c-0.25,0-0.5-0.01-0.74-0.02c-0.21-0.19-0.35-0.46-0.35-0.77
				c0-0.56,0.46-1.02,1.02-1.02c0.56,0,1.02,0.46,1.02,1.02C20.42,47.69,20.28,47.96,20.06,48.15"/>
			<path class="st2" d="M11.97,45.76c0-0.01,0-0.07,0-0.07c0-0.56,0.46-1.02,1.02-1.02c0.49,0,0.92,0.37,1,0.84
				c-0.51,0.03-0.94,0.41-1.04,0.9c-0.18-0.11-0.42-0.26-0.63-0.4C12.21,45.93,12.09,45.86,11.97,45.76"/>
			<path class="st2" d="M18.26,45.13c-0.52,0.03-0.94,0.41-1.04,0.9c-0.16-0.39-0.54-0.67-0.98-0.7v-0.02
				c0-0.56,0.46-1.02,1.02-1.02C17.76,44.29,18.18,44.66,18.26,45.13"/>
			<path class="st2" d="M21.6,46.45c0.09-0.47,0.51-0.83,1-0.83c0.56,0,1.02,0.46,1.02,1.02c-0.44,0.02-0.83,0.3-0.99,0.7
				C22.53,46.86,22.11,46.49,21.6,46.45"/>
			<path class="st2" d="M16.14,45.33c-0.51,0.03-0.94,0.41-1.04,0.89c-0.16-0.4-0.54-0.68-0.99-0.71V45.5
				c0-0.56,0.46-1.02,1.02-1.02C15.63,44.48,16.05,44.85,16.14,45.33"/>
			<path class="st2" d="M19.5,46.14c0.11-0.38,0.45-0.67,0.86-0.71c0.04-0.01,0.07-0.01,0.1-0.01c0.52,0,0.95,0.39,1.01,0.89
				c0,0.02,0,0.04,0,0.07v0.04v0.02v0.02c-0.44,0.03-0.82,0.31-0.98,0.7c-0.1-0.49-0.52-0.87-1.03-0.9c0-0.03,0.01-0.06,0.02-0.08
				C19.5,46.16,19.5,46.15,19.5,46.14"/>
			<path class="st2" d="M18.13,48.11c-0.65-0.06-1.27-0.16-1.87-0.31c-0.01-0.07-0.02-0.14-0.02-0.21c0-0.56,0.46-1.02,1.02-1.02
				c0.56,0,1.02,0.46,1.02,1.02C18.28,47.78,18.23,47.95,18.13,48.11"/>
			<path class="st2" d="M22.53,47.84c-0.58,0.13-1.2,0.23-1.85,0.28c-0.09-0.16-0.15-0.34-0.15-0.53c0-0.56,0.46-1.02,1.02-1.02
				c0.56,0,1.01,0.46,1.01,1.02C22.56,47.67,22.55,47.75,22.53,47.84"/>
			<path class="st2" d="M13.06,46.5c0.07-0.49,0.49-0.88,1.01-0.88c0.52,0,0.95,0.39,1.01,0.89c0,0.02,0,0.04,0.01,0.07v0.04v0.02
				v0.02c-0.35,0.02-0.65,0.19-0.85,0.46C13.82,46.93,13.43,46.73,13.06,46.5"/>
			<path class="st2" d="M24.62,47.15c-0.19-0.28-0.51-0.48-0.87-0.5c0.01-0.03,0.01-0.06,0.02-0.08c0-0.01,0-0.01,0-0.02
				c0.11-0.38,0.46-0.68,0.87-0.72c0.04-0.01,0.07-0.01,0.1-0.01c0.47,0,0.88,0.33,0.99,0.78C25.38,46.8,25.01,46.99,24.62,47.15"/>
			<path class="st2" d="M14.23,36.6c-0.72,0.78-1.29,1.16-1.63,1.31c-0.06-0.11-0.15-0.2-0.27-0.26c0.14-0.36,0.51-0.93,1.25-1.67
				L14.23,36.6z"/>
		</g>
		<polygon class="st2" points="13.54,35.17 13.93,35.54 15.12,36.69 14.79,37.03 13.22,35.5 		"/>
		<g>
			<path class="st2" d="M28.39,46.76l0.54-0.49c0.28-0.26,0.53-0.1,0.61-0.01c0.1,0.12,0.14,0.27,0.06,0.4
				c0.12-0.04,0.2-0.06,0.38,0.14c0.14,0.15,0.18,0.19,0.24,0.17L30.25,47L30,47.23c-0.06-0.04-0.12-0.08-0.22-0.19
				c-0.13-0.14-0.19-0.19-0.35-0.04l-0.23,0.21l0.38,0.41l-0.22,0.2L28.39,46.76z M29.28,46.81c0.12-0.1,0.14-0.2,0.04-0.3
				c-0.05-0.06-0.15-0.11-0.28,0.01l-0.28,0.25l0.26,0.28L29.28,46.81z"/>
			<path class="st2" d="M24.51,47.18c-0.58,0.25-1.19,0.45-1.85,0.61v-0.03c0-0.56,0.46-1.02,1.02-1.02
				C24.02,46.74,24.33,46.92,24.51,47.18"/>
		</g>
		<polygon class="st2" points="9.25,45.9 8.74,45.32 8.52,45.52 8.99,46.05 8.8,46.22 8.33,45.69 8.05,45.93 8.59,46.53 8.4,46.7 
			7.67,45.88 8.73,44.93 9.44,45.73 		"/>
		<g>
			<path class="st2" d="M16.14,47.76c-0.65-0.16-1.25-0.37-1.82-0.62c0.18-0.24,0.48-0.4,0.8-0.4
				C15.68,46.74,16.14,47.2,16.14,47.76"/>
		</g>
		<polygon class="st2" points="11.43,47.81 10.82,47.36 10.63,47.59 11.21,48.01 11.06,48.22 10.49,47.8 10.27,48.1 10.92,48.57 
			10.77,48.77 9.88,48.13 10.72,46.98 11.59,47.6 		"/>
		<polygon class="st2" points="4.54,39.7 4.63,39.98 5.54,39.65 4.82,40.53 4.92,40.81 6.27,40.34 6.18,40.07 5.27,40.39 5.99,39.5 
			5.88,39.23 		"/>
		<polygon class="st2" points="5.68,42.64 6.97,42.03 7.41,42.97 7.2,43.07 6.88,42.4 6.57,42.55 6.83,43.11 6.62,43.22 6.35,42.64 
			5.79,42.91 		"/>
		<g>
			<path class="st2" d="M6.7,44.6l1.18-0.82l0.36,0.51c0.17,0.24,0.14,0.63-0.26,0.9c-0.38,0.26-0.75,0.17-0.92-0.08L6.7,44.6z
				 M7.08,44.7l0.15,0.22c0.12,0.16,0.3,0.21,0.57,0.03c0.15-0.1,0.22-0.21,0.24-0.3c0.04-0.1,0.03-0.2-0.07-0.33l-0.12-0.17
				L7.08,44.7z"/>
			<path class="st2" d="M33.01,42.03c0.33,0.17,0.38,0.45,0.21,0.77c-0.06,0.12-0.18,0.28-0.36,0.34c-0.11,0.03-0.23,0.01-0.36-0.05
				l-0.85-0.42l0.14-0.28l0.83,0.41c0.18,0.09,0.31,0.02,0.37-0.1c0.09-0.19,0.04-0.3-0.11-0.39l-0.84-0.41l0.14-0.28L33.01,42.03z"
				/>
			<path class="st2" d="M24,14.71c-0.35-0.08-0.71-0.16-1.06-0.21c-0.14-0.02-0.27-0.04-0.41-0.06c-0.03,0-0.05,0-0.08-0.01
				l0.06-0.89c0.19,0.03,0.34,0.05,0.4,0.05c0.41,0.07,0.8,0.14,1.21,0.23L24,14.71z"/>
			<path class="st2" d="M16.44,14.42c-0.05,0.01-0.1,0.02-0.15,0.02c-0.14,0.02-0.27,0.04-0.4,0.06c-0.34,0.06-0.68,0.12-1.01,0.2
				l-0.1-0.87c0.42-0.09,0.84-0.17,1.26-0.24c0.05-0.01,0.17-0.03,0.33-0.05L16.44,14.42z"/>
			<path class="st2" d="M32.43,41.15l0.22-0.6c0.17-0.46,0.59-0.41,0.84-0.32c0.28,0.11,0.66,0.38,0.49,0.82l-0.22,0.59L32.43,41.15
				z M33.64,41.3l0.1-0.28c0.09-0.23-0.11-0.4-0.34-0.47c-0.39-0.15-0.49,0.03-0.54,0.16l-0.1,0.27L33.64,41.3z"/>
		</g>
		<polygon class="st2" points="31.05,46.04 30.85,46.27 29.97,45.5 29.68,45.83 29.49,45.66 30.26,44.77 30.45,44.94 30.17,45.27 		
			"/>
		<polygon class="st2" points="32.47,44.12 32.31,44.38 31.32,43.76 31.09,44.13 30.87,44 31.5,42.99 31.71,43.13 31.48,43.5 		"/>
		<g>
			<path class="st2" d="M33.03,39.06c0.04-0.19,0.25-0.66,0.89-0.5c0.65,0.16,0.6,0.67,0.56,0.86c-0.04,0.18-0.25,0.66-0.89,0.5
				C32.94,39.76,32.99,39.25,33.03,39.06 M34.24,39.38c0.04-0.16,0-0.4-0.39-0.5c-0.39-0.1-0.54,0.1-0.58,0.26
				c-0.04,0.16,0,0.41,0.39,0.5C34.05,39.74,34.2,39.54,34.24,39.38"/>
			<path class="st2" d="M19.86,24.63h-0.8c-0.02-0.16-0.08-0.33-0.14-0.51c-0.07-0.2-0.15-0.42-0.17-0.65
				c-0.02-0.14-0.03-0.28-0.03-0.43c0-0.7,0.18-1.41,0.41-1.75c0.01,0.01,0.01,0.01,0.02,0.01c0.09,0.06,0.2,0.09,0.32,0.09
				c0.11,0,0.22-0.03,0.31-0.09c0.22,0.35,0.4,1.06,0.4,1.75c0,0.14-0.01,0.28-0.03,0.42c-0.03,0.24-0.1,0.46-0.16,0.68
				C19.93,24.32,19.88,24.48,19.86,24.63"/>
			<path class="st2" d="M27.53,47.39c0.16-0.11,0.62-0.34,1,0.21c0.38,0.55,0.01,0.9-0.14,1.01c-0.16,0.11-0.61,0.34-1-0.21
				C27,47.86,27.37,47.5,27.53,47.39 M28.25,48.39c0.13-0.1,0.27-0.31,0.04-0.63c-0.23-0.33-0.48-0.28-0.61-0.18
				c-0.13,0.09-0.27,0.31-0.04,0.63C27.87,48.54,28.12,48.49,28.25,48.39"/>
			<path class="st2" d="M16.49,50.44c-0.08,0.37-0.34,0.47-0.7,0.4c-0.13-0.03-0.32-0.1-0.41-0.27c-0.06-0.1-0.06-0.22-0.03-0.36
				l0.21-0.92l0.3,0.07l-0.2,0.9c-0.04,0.19,0.05,0.3,0.19,0.33c0.2,0.04,0.31-0.03,0.35-0.2l0.2-0.92l0.3,0.07L16.49,50.44z"/>
		</g>
		<polygon class="st2" points="6.22,43.79 6.35,44.05 7.62,43.4 7.49,43.14 		"/>
		<polygon class="st2" points="4.31,39 4.4,39.28 5.76,38.86 5.67,38.57 		"/>
		<g>
			<path class="st2" d="M23.02,38.03c-0.25-0.34-0.37-0.74-0.37-1.07c0-0.16,0.02-0.32,0.06-0.46c0.14-0.43,0.44-0.72,0.76-0.72
				c0.11,0,0.21,0.03,0.32,0.09c0.11,0.06,0.17,0.19,0.17,0.33c0,0.05-0.01,0.1-0.02,0.15c-0.02,0.06-0.05,0.12-0.09,0.16
				c-0.09,0.09-0.23,0.09-0.34,0.03c-0.06-0.04-0.09-0.1-0.09-0.15c0-0.14,0.11-0.22,0.26-0.22c-0.22-0.06-0.3-0.02-0.41,0.04
				c-0.1,0.1-0.21,0.26-0.26,0.43c-0.03,0.11-0.05,0.22-0.05,0.35c0,0.24,0.1,0.54,0.29,0.82C23.18,37.86,23.09,37.94,23.02,38.03"
				/>
			<path class="st2" d="M27.2,34.95c0.25,0.34,0.36,0.74,0.36,1.07c0,0.16-0.02,0.32-0.06,0.46c-0.13,0.43-0.44,0.72-0.76,0.72
				c-0.1,0-0.21-0.03-0.32-0.09c-0.1-0.06-0.17-0.19-0.17-0.33c0-0.05,0.01-0.1,0.02-0.15c0.02-0.06,0.05-0.12,0.09-0.16
				c0.09-0.09,0.23-0.09,0.34-0.03c0.06,0.04,0.09,0.1,0.09,0.15c0,0.13-0.11,0.22-0.26,0.22c0.22,0.06,0.3,0.02,0.41-0.04
				c0.11-0.1,0.21-0.26,0.26-0.43c0.03-0.11,0.05-0.22,0.05-0.35c0-0.24-0.1-0.54-0.29-0.82C27.04,35.12,27.12,35.04,27.2,34.95"/>
		</g>
		<path class="st2" d="M23.62,50.75l-0.31,0.09l0.11-1.51l0.34-0.09l0.88,1.23l-0.31,0.09l-0.17-0.26l-0.51,0.15L23.62,50.75z
			 M23.65,50.16l0.36-0.1l-0.33-0.49L23.65,50.16z"/>
		<polygon class="st2" points="11.7,49.28 11.44,49.13 12.02,48.11 11.64,47.89 11.77,47.67 12.79,48.27 12.66,48.49 12.28,48.26 		
			"/>
		<polygon class="st2" points="31.86,45.09 31.68,45.33 30.54,44.48 30.72,44.24 		"/>
		<polygon class="st2" points="26.75,49.48 26.48,49.63 25.8,48.38 26.71,47.88 26.84,48.11 26.19,48.46 26.35,48.74 26.91,48.43 
			27.03,48.66 26.46,48.96 		"/>
		<polygon class="st2" points="21.64,51.15 21.34,51.18 21.2,50.02 20.77,50.07 20.74,49.82 21.91,49.68 21.94,49.93 21.5,49.98 		
			"/>
		<g>
			<path class="st2" d="M17.17,50.65c-0.01,0.08,0.01,0.23,0.28,0.26c0.14,0.01,0.31,0,0.32-0.15c0.01-0.11-0.09-0.15-0.24-0.21
				l-0.15-0.06c-0.23-0.08-0.45-0.16-0.41-0.47c0.02-0.16,0.14-0.42,0.6-0.37c0.44,0.05,0.53,0.35,0.51,0.52l-0.29-0.03
				c0-0.06-0.01-0.21-0.27-0.24c-0.11-0.02-0.26,0.01-0.27,0.14c-0.01,0.11,0.08,0.15,0.14,0.16l0.34,0.12
				c0.19,0.07,0.37,0.17,0.34,0.42c-0.05,0.43-0.5,0.41-0.62,0.4c-0.52-0.06-0.58-0.37-0.56-0.54L17.17,50.65z"/>
			<path class="st2" d="M14.79,50.19c-0.1,0.29-0.3,0.38-0.57,0.28c-0.46-0.15-0.36-0.44-0.28-0.69l0.27,0.09
				c-0.07,0.21-0.09,0.32,0.06,0.37c0.15,0.05,0.19-0.04,0.22-0.14l0.32-0.96l0.29,0.09L14.79,50.19z"/>
		</g>
		<polygon class="st2" points="17.74,31.71 17.82,29.44 18.67,30.32 18.9,30.55 		"/>
		<polygon class="st2" points="19.19,51.26 18.89,51.26 18.91,50.08 18.48,50.08 18.48,49.82 19.66,49.85 19.66,50.1 19.22,50.09 		
			"/>
		<polygon class="st2" points="21.01,29.55 21.09,31.84 20.33,31.05 19.96,30.68 		"/>
		<g>
			<path class="st2" d="M23.16,35.36c-0.03-0.04-0.05-0.08-0.05-0.12c0-0.12,0.1-0.31,0.31-0.52c0.2-0.2,0.39-0.3,0.52-0.3
				c0.05,0,0.09,0.01,0.13,0.05c0.03,0.04,0.05,0.07,0.05,0.12c0,0.13-0.1,0.32-0.31,0.52c-0.2,0.19-0.39,0.29-0.51,0.29
				C23.24,35.41,23.19,35.39,23.16,35.36"/>
			<path class="st2" d="M28.14,16.1l0.23-0.9c0.16,0.07,0.31,0.14,0.36,0.16c0.06,0.03,0.19,0.09,0.33,0.16l-0.22,0.91
				c-0.15-0.07-0.3-0.15-0.36-0.18C28.43,16.23,28.29,16.16,28.14,16.1"/>
			<path class="st2" d="M10.54,15.24l0.22,0.85c-0.17,0.07-0.33,0.15-0.4,0.18c-0.05,0.03-0.17,0.08-0.3,0.15l-0.21-0.85
				c0.16-0.08,0.32-0.16,0.38-0.19C10.28,15.35,10.4,15.29,10.54,15.24"/>
			<path class="st2" d="M24.97,14.94l0.13-0.89c0.19,0.05,0.35,0.09,0.4,0.1c0.06,0.02,0.2,0.06,0.34,0.1l-0.15,0.9
				C25.43,15.08,25.11,14.98,24.97,14.94"/>
			<path class="st2" d="M24.97,14.04l-0.13,0.89c-0.23-0.06-0.46-0.11-0.7-0.17l0.11-0.9C24.4,13.89,24.71,13.96,24.97,14.04"/>
			<path class="st2" d="M14.06,14.9l-0.12-0.85c0.25-0.07,0.54-0.14,0.72-0.18l0.1,0.87C14.53,14.78,14.29,14.84,14.06,14.9"/>
			<path class="st2" d="M13.82,14.08l0.12,0.86c-0.09,0.03-0.43,0.13-0.73,0.22l-0.14-0.87c0.17-0.05,0.34-0.1,0.41-0.12
				C13.53,14.15,13.66,14.12,13.82,14.08"/>
			<path class="st2" d="M26.46,35.2c-0.03-0.03-0.05-0.07-0.05-0.12c0-0.1,0.08-0.25,0.24-0.41c0.16-0.16,0.3-0.22,0.41-0.22
				c0.05,0,0.09,0.02,0.13,0.05c0.03,0.04,0.05,0.08,0.05,0.12c0,0.1-0.07,0.25-0.23,0.4c-0.16,0.16-0.31,0.23-0.41,0.23
				C26.53,35.26,26.49,35.25,26.46,35.2"/>
			<path class="st2" d="M23.77,37.78c0.03,0.03,0.05,0.07,0.05,0.12c0,0.1-0.08,0.25-0.24,0.41c-0.16,0.16-0.3,0.22-0.41,0.22
				c-0.05,0-0.09-0.02-0.13-0.05c-0.03-0.04-0.05-0.08-0.05-0.12c0-0.1,0.07-0.25,0.23-0.4c0.16-0.16,0.31-0.23,0.41-0.23
				C23.69,37.72,23.73,37.74,23.77,37.78"/>
			<path class="st2" d="M21.62,14.33l0.04-0.89c0.16,0.02,0.46,0.05,0.74,0.09l-0.07,0.89C22.09,14.39,21.86,14.36,21.62,14.33"/>
			<path class="st2" d="M17.25,13.45l0.04,0.88c-0.23,0.02-0.47,0.06-0.71,0.09l-0.07-0.88C16.76,13.5,17.06,13.47,17.25,13.45"/>
			<path class="st2" d="M12.11,38.55c-0.22,0-0.41-0.18-0.41-0.41c0-0.23,0.19-0.41,0.41-0.41c0.23,0,0.41,0.19,0.41,0.41
				C12.52,38.36,12.34,38.55,12.11,38.55"/>
			<path class="st2" d="M21.54,13.43l-0.05,0.89c-0.13-0.01-0.43-0.03-0.7-0.05l0.03-0.9C20.96,13.38,21.33,13.41,21.54,13.43"/>
			<path class="st2" d="M17.4,14.31l-0.05-0.88c0.16-0.01,0.52-0.05,0.72-0.06l0.03,0.89C17.85,14.28,17.56,14.3,17.4,14.31"/>
			<path class="st2" d="M26.06,37.82c-0.18,0-0.33-0.15-0.33-0.33c0-0.18,0.15-0.32,0.33-0.32c0.18,0,0.32,0.14,0.32,0.32
				C26.39,37.68,26.24,37.82,26.06,37.82"/>
			<path class="st2" d="M23.85,35.48c0.01-0.18,0.15-0.31,0.32-0.31h0.01c0.18,0.01,0.32,0.16,0.32,0.33v0.01
				c0,0.18-0.15,0.32-0.33,0.32h-0.01c-0.18-0.01-0.32-0.16-0.32-0.33V35.48z"/>
		</g>
		
			<rect x="22.4" y="49.57" transform="matrix(0.9824 -0.1869 0.1869 0.9824 -9.0007 5.1014)" class="st2" width="0.3" height="1.42"/>
		<g>
			<path class="st2" d="M13.41,24.61c-0.12,0-0.22-0.1-0.22-0.22c0-0.13,0.1-0.22,0.22-0.22s0.22,0.1,0.22,0.22
				C13.63,24.51,13.53,24.61,13.41,24.61"/>
			<path class="st2" d="M14,24.71l-0.3,0.3l-0.15-0.32c0.06-0.04,0.11-0.08,0.15-0.14L14,24.71z"/>
		</g>
		<polygon class="st2" points="20.04,49.84 20.1,51.26 20.4,51.24 20.34,49.83 		"/>
		<g>
			<path class="st2" d="M18.25,48.11c0.05-0.1,0.09-0.2,0.11-0.31c0.05,0.12,0.12,0.24,0.21,0.33
				C18.47,48.13,18.36,48.12,18.25,48.11"/>
			<path class="st2" d="M20.23,48.14c0.09-0.1,0.17-0.21,0.22-0.34c0.02,0.11,0.06,0.22,0.12,0.32
				C20.46,48.13,20.35,48.14,20.23,48.14"/>
			<path d="M122.36,50.08c0.12-0.78,0.6-1.25,1.31-1.25c0.64,0,1.06,0.49,1.14,1.25H122.36z M123.94,53.11
				c0.66,0,1.39-0.23,1.76-0.54v-0.98c-0.42,0.37-1.06,0.62-1.67,0.62c-0.99,0-1.55-0.42-1.68-1.27h3.54c0.12-1.87-0.72-3-2.24-3
				c-1.45,0-2.37,1.01-2.37,2.6C121.28,52.19,122.24,53.11,123.94,53.11 M117.92,53.02h1.15c0.69-1.49,1.31-3.15,1.87-5.02h-1.07
				c-0.42,1.58-0.88,2.9-1.33,3.98c-0.46-1.1-0.95-2.6-1.25-3.98h-1.13C116.57,49.62,117.21,51.45,117.92,53.02 M112.15,50.08
				c0.12-0.78,0.6-1.25,1.31-1.25c0.64,0,1.06,0.49,1.14,1.25H112.15z M113.73,53.11c0.66,0,1.39-0.23,1.76-0.54v-0.98
				c-0.42,0.37-1.06,0.62-1.67,0.62c-0.99,0-1.55-0.42-1.68-1.27h3.54c0.12-1.87-0.72-3-2.24-3c-1.45,0-2.37,1.01-2.37,2.6
				C111.08,52.19,112.03,53.11,113.73,53.11 M109.81,51.89v-5.54h-1.04v5.62c0,0.72,0.38,1.14,1.03,1.14c0.2,0,0.4-0.06,0.53-0.13
				v-0.78c-0.07,0.03-0.14,0.04-0.22,0.04C109.9,52.23,109.81,52.12,109.81,51.89 M103.36,46.54c0-0.22,0.18-0.4,0.41-0.4
				c0.22,0,0.39,0.18,0.39,0.4c0,0.24-0.17,0.41-0.39,0.41C103.54,46.95,103.36,46.77,103.36,46.54 M102.86,46.55
				c0,0.5,0.4,0.9,0.9,0.9c0.5,0,0.9-0.4,0.9-0.9c0-0.5-0.4-0.9-0.9-0.9C103.26,45.65,102.86,46.04,102.86,46.55 M101.68,51.64
				c0,0.86,0.66,1.47,1.6,1.47c0.63,0,1.19-0.25,1.54-0.64c0.1,0.41,0.36,0.63,0.77,0.63c0.22,0,0.43-0.07,0.53-0.17v-0.7
				c-0.06,0.02-0.1,0.03-0.13,0.03c-0.17,0-0.25-0.09-0.25-0.27v-2.15c0-1.24-0.72-1.91-2.07-1.91c-0.57,0-1.14,0.15-1.56,0.41v0.99
				c0.46-0.33,0.91-0.49,1.43-0.49c0.72,0,1.14,0.35,1.15,0.96C102.62,49.9,101.68,50.47,101.68,51.64 M102.74,51.54
				c0-0.61,0.55-0.88,1.97-0.93v1.09c-0.31,0.34-0.71,0.53-1.19,0.53C103.03,52.22,102.74,51.97,102.74,51.54 M95.46,50.52
				c0-1.02,0.6-1.69,1.44-1.69c0.5,0,0.85,0.2,1.07,0.43v2.5c-0.25,0.28-0.63,0.44-1.1,0.44C96.02,52.2,95.46,51.51,95.46,50.52
				 M98.08,52.6l0.05,0.43h0.88v-6.68h-1.04v1.99c-0.31-0.26-0.7-0.41-1.25-0.41c-1.35,0-2.33,1-2.33,2.59
				c0,1.56,0.98,2.58,2.33,2.58C97.28,53.11,97.75,52.9,98.08,52.6 M90.11,50.08c0.12-0.78,0.6-1.25,1.31-1.25
				c0.64,0,1.06,0.49,1.14,1.25H90.11z M91.68,53.11c0.66,0,1.39-0.23,1.76-0.54v-0.98c-0.42,0.37-1.06,0.62-1.67,0.62
				c-0.99,0-1.55-0.42-1.68-1.27h3.54c0.12-1.87-0.72-3-2.24-3c-1.45,0-2.37,1.01-2.37,2.6C89.03,52.19,89.98,53.11,91.68,53.11
				 M85.34,48.39v0.52h0.68v2.53c0,1.08,0.56,1.67,1.62,1.67c0.38,0,0.78-0.11,0.94-0.25v-0.81c-0.17,0.08-0.47,0.13-0.7,0.13
				c-0.6,0-0.83-0.23-0.83-0.82v-2.45h1.35v-0.91h-1.35v-0.92h-0.58l-0.02,0.07C86.25,47.77,85.92,48.13,85.34,48.39 M83.08,47.93
				c0.58,0,1.13,0.1,1.44,0.29l-0.01,1c-0.37-0.25-0.87-0.38-1.37-0.38c-0.55,0-0.85,0.16-0.85,0.48c-0.01,0.29,0.24,0.46,0.94,0.66
				c1.22,0.35,1.64,0.75,1.64,1.59c0,0.92-0.81,1.54-2.02,1.54c-0.69,0-1.24-0.11-1.66-0.33V51.7c0.47,0.31,1.08,0.51,1.62,0.51
				c0.6,0,0.99-0.22,0.99-0.56c0-0.39-0.36-0.51-1.15-0.75c-0.98-0.3-1.41-0.74-1.41-1.48C81.24,48.49,81.94,47.93,83.08,47.93
				 M75.52,48.39v0.52h0.68v2.53c0,1.08,0.56,1.67,1.62,1.67c0.38,0,0.78-0.11,0.94-0.25v-0.81c-0.17,0.08-0.47,0.13-0.7,0.13
				c-0.6,0-0.83-0.23-0.83-0.82v-2.45h1.35v-0.91h-1.35v-0.92h-0.58l-0.02,0.07C76.44,47.77,76.1,48.13,75.52,48.39 M71.2,50.52
				c0-1.02,0.6-1.69,1.44-1.69c0.5,0,0.85,0.2,1.07,0.43v2.5c-0.25,0.28-0.63,0.44-1.1,0.44C71.76,52.2,71.2,51.51,71.2,50.52
				 M73.82,52.6l0.05,0.43h0.88v-6.68h-1.04v1.99c-0.31-0.26-0.7-0.41-1.25-0.41c-1.35,0-2.33,1-2.33,2.59
				c0,1.56,0.98,2.58,2.33,2.58C73.02,53.11,73.49,52.9,73.82,52.6 M65.61,50.52c0-1.04,0.52-1.68,1.35-1.68
				c0.84,0,1.37,0.64,1.37,1.68c0,1.04-0.53,1.69-1.34,1.69C66.13,52.2,65.61,51.56,65.61,50.52 M69.39,50.52
				c0-1.5-0.84-2.58-2.42-2.58c-1.57,0-2.41,1.1-2.41,2.58c0,1.5,0.83,2.59,2.42,2.59C68.54,53.11,69.39,52,69.39,50.52
				 M60.63,49.56c0-0.48,0.35-0.78,0.86-0.78c0.53,0,0.89,0.31,0.89,0.78c0,0.47-0.34,0.78-0.86,0.78
				C60.97,50.34,60.63,50.04,60.63,49.56 M61.55,54.83c1.45,0,2.45-0.64,2.45-1.57c0-0.76-0.55-1.24-1.81-1.32l-1.01-0.07
				c-0.48-0.03-0.68-0.17-0.68-0.42c0-0.15,0.09-0.28,0.27-0.35c0.22,0.06,0.47,0.1,0.74,0.1c1.15,0,1.91-0.65,1.91-1.62
				c0-0.31-0.11-0.59-0.3-0.8c0.33,0.05,0.6,0.05,0.85,0v-0.84c-0.84,0.14-1.68,0-2.46,0c-1.17,0-1.91,0.65-1.91,1.66
				c0,0.55,0.24,0.98,0.65,1.27c-0.43,0.18-0.66,0.49-0.66,0.87c0,0.63,0.51,1,1.48,1.06l0.95,0.06c0.71,0.05,0.93,0.2,0.93,0.5
				c0,0.36-0.57,0.61-1.38,0.61c-0.82,0-1.27-0.18-1.27-0.53c0-0.12,0.07-0.25,0.18-0.35h-0.82c-0.23,0.11-0.38,0.34-0.38,0.59
				C59.28,54.35,60.16,54.83,61.55,54.83 M53.8,48.39v0.52h0.68v2.53c0,1.08,0.56,1.67,1.62,1.67c0.38,0,0.78-0.11,0.94-0.25v-0.81
				c-0.17,0.08-0.47,0.13-0.7,0.13c-0.6,0-0.83-0.23-0.83-0.82v-2.45h1.35v-0.91h-1.35v-0.92h-0.58l-0.02,0.07
				C54.71,47.77,54.38,48.13,53.8,48.39 M49.66,50.08c0.12-0.78,0.6-1.25,1.31-1.25c0.64,0,1.06,0.49,1.14,1.25H49.66z M51.23,53.11
				c0.66,0,1.39-0.23,1.76-0.54v-0.98c-0.42,0.37-1.06,0.62-1.67,0.62c-0.99,0-1.55-0.42-1.68-1.27h3.54c0.12-1.87-0.72-3-2.24-3
				c-1.45,0-2.36,1.01-2.36,2.6C48.58,52.19,49.53,53.11,51.23,53.11"/>
		</g>
		<rect x="42.3" y="49.4" width="3.82" height="0.99"/>
	</g>
</g>
</svg>
